<?xml version="1.0" encoding="UTF-8" standalone="no"?>
<!-- Created with Inkscape (http://www.inkscape.org/) -->

<svg
   xmlns:dc="http://purl.org/dc/elements/1.1/"
   xmlns:cc="http://creativecommons.org/ns#"
   xmlns:rdf="http://www.w3.org/1999/02/22-rdf-syntax-ns#"
   xmlns:svg="http://www.w3.org/2000/svg"
   xmlns="http://www.w3.org/2000/svg"
   xmlns:xlink="http://www.w3.org/1999/xlink"
   xmlns:sodipodi="http://sodipodi.sourceforge.net/DTD/sodipodi-0.dtd"
   xmlns:inkscape="http://www.inkscape.org/namespaces/inkscape"
   width="210mm"
   height="297mm"
   viewBox="0 0 210 297"
   version="1.1"
   id="svg3631"
   inkscape:version="0.92.4 (5da689c313, 2019-01-14)"
   sodipodi:docname="barbed wire silhouette.svg">
  <defs
     id="defs3625">
    <clipPath
       clipPathUnits="userSpaceOnUse"
       id="clipPath18">
      <path
         d="M 0,600.949 H 847.559 V 0 H 0 Z"
         id="path16"
         inkscape:connector-curvature="0" />
    </clipPath>
    <linearGradient
       id="a"
       x1="104.73"
       x2="494.51999"
       y1="335.72"
       y2="895.84003"
       gradientUnits="userSpaceOnUse">
      <stop
         stop-color="#e00"
         offset="0"
         id="stop2" />
      <stop
         stop-color="#9a0000"
         offset="1"
         id="stop4" />
    </linearGradient>
    <clipPath
       id="SVGID_6_-19-1-2">
      <use
         id="use35-7-6-6"
         overflow="visible"
         xlink:href="#SVGID_5_"
         style="overflow:visible"
         x="0"
         y="0"
         width="100%"
         height="100%" />
    </clipPath>
    <linearGradient
       id="aa"
       x1="333.62"
       x2="410.39001"
       y1="593.71002"
       y2="708.62"
       gradientTransform="matrix(0.24508723,0,0,0.24508723,-385.82167,436.20492)"
       gradientUnits="userSpaceOnUse">
      <stop
         stop-color="#fff"
         offset="0"
         id="stop27" />
      <stop
         stop-color="#72d8db"
         offset="1"
         id="stop29" />
    </linearGradient>
    <linearGradient
       id="ab"
       x1="183.97"
       x2="242.96001"
       y1="492.26001"
       y2="608.32001"
       gradientTransform="matrix(0.24508723,0,0,0.24508723,-385.82167,436.20492)"
       gradientUnits="userSpaceOnUse"
       xlink:href="#z" />
    <linearGradient
       id="z">
      <stop
         stop-color="#4d4d4d"
         offset="0"
         id="stop7" />
      <stop
         stop-color="#1f1f1f"
         offset="1"
         id="stop9" />
    </linearGradient>
    <linearGradient
       id="ac"
       x1="588.21997"
       x2="645.09003"
       y1="190.97"
       y2="314.20999"
       gradientTransform="matrix(0.24508723,0,0,0.24508723,-385.82167,511.75796)"
       gradientUnits="userSpaceOnUse"
       xlink:href="#z" />
    <linearGradient
       id="ad"
       x1="694.64001"
       x2="660"
       y1="487.67001"
       y2="478.38"
       gradientTransform="matrix(0.24508723,0,0,0.24508723,-385.82167,511.75796)"
       gradientUnits="userSpaceOnUse"
       xlink:href="#b" />
    <linearGradient
       id="b">
      <stop
         stop-color="#ff2a2a"
         offset="0"
         id="stop12" />
      <stop
         stop-color="#a42727"
         offset="1"
         id="stop14" />
    </linearGradient>
    <linearGradient
       id="ae"
       x1="962.19"
       x2="924.15002"
       y1="549.27002"
       y2="545.97998"
       gradientTransform="matrix(0.24508723,0,0,0.24508723,-385.82167,511.75796)"
       gradientUnits="userSpaceOnUse"
       xlink:href="#b" />
    <linearGradient
       id="af"
       x1="706.72998"
       x2="669.69"
       y1="773.96997"
       y2="765.40002"
       gradientUnits="userSpaceOnUse"
       xlink:href="#a-6"
       gradientTransform="matrix(0.24508723,0,0,0.24508723,-385.82167,436.20492)" />
    <linearGradient
       id="a-6">
      <stop
         stop-color="#fff"
         offset="0"
         id="stop22" />
      <stop
         stop-color="#b7fdff"
         offset="1"
         id="stop24" />
    </linearGradient>
    <linearGradient
       id="ag"
       x1="758.60999"
       x2="690.67999"
       y1="659.78998"
       y2="690.51001"
       gradientUnits="userSpaceOnUse"
       xlink:href="#a-6"
       gradientTransform="matrix(0.24508723,0,0,0.24508723,-385.82167,436.20492)" />
    <linearGradient
       id="ai"
       x1="513.15997"
       x2="483.25"
       y1="274.92001"
       y2="255.23"
       gradientTransform="matrix(0.24508723,0,0,0.24508723,-380.51347,455.38989)"
       gradientUnits="userSpaceOnUse"
       xlink:href="#a-6" />
    <linearGradient
       id="al"
       x1="331.45999"
       x2="323.88"
       y1="311.75"
       y2="303.04001"
       gradientUnits="userSpaceOnUse"
       xlink:href="#b"
       gradientTransform="matrix(0.24508723,0,0,0.24508723,-378.88937,506.04599)" />
    <linearGradient
       id="am"
       x1="220.92999"
       x2="226.08"
       y1="297.32001"
       y2="304.39001"
       gradientUnits="userSpaceOnUse"
       xlink:href="#b"
       gradientTransform="matrix(0.24508723,0,0,0.24508723,-378.88937,506.04599)" />
    <linearGradient
       id="an"
       x1="216.22"
       x2="220.34"
       y1="298.26999"
       y2="305.09"
       gradientUnits="userSpaceOnUse"
       xlink:href="#b"
       gradientTransform="matrix(0.24508723,0,0,0.24508723,-378.88937,506.04599)" />
    <linearGradient
       id="ao"
       x1="235.50999"
       x2="228.84"
       y1="257.62"
       y2="257.62"
       gradientUnits="userSpaceOnUse"
       xlink:href="#a-6"
       gradientTransform="matrix(0.24508723,0,0,0.24508723,-378.88937,506.04599)" />
    <linearGradient
       id="ap"
       x1="241.75"
       x2="236.03999"
       y1="283.56"
       y2="260.26999"
       gradientUnits="userSpaceOnUse"
       gradientTransform="matrix(0.21408859,0,0,0.23253631,-371.60072,509.5826)">
      <stop
         stop-color="#000080"
         offset="0"
         id="stop46" />
      <stop
         stop-color="#2a97ff"
         offset="1"
         id="stop48" />
    </linearGradient>
    <linearGradient
       id="aq"
       x1="310.06"
       x2="340.95001"
       y1="231.14"
       y2="217.48"
       gradientUnits="userSpaceOnUse"
       xlink:href="#a-6"
       gradientTransform="matrix(0.24508723,0,0,0.24508723,-378.88937,506.04599)" />
    <linearGradient
       id="ar"
       x1="347.25"
       x2="346.59"
       y1="181.92"
       y2="208.44"
       gradientUnits="userSpaceOnUse"
       xlink:href="#a-6"
       gradientTransform="matrix(0.24508723,0,0,0.24508723,-378.88937,506.04599)" />
    <linearGradient
       id="as"
       x1="336.45999"
       x2="338.78"
       y1="291.32999"
       y2="265.57001"
       gradientUnits="userSpaceOnUse"
       xlink:href="#a-6"
       gradientTransform="matrix(0.24508723,0,0,0.24508723,-378.88937,506.04599)" />
    <clipPath
       id="SVGID_6_-19-1-0-6-0-2-2">
      <use
         id="use35-7-6-13-0-8-8-2"
         overflow="visible"
         xlink:href="#SVGID_5_"
         style="overflow:visible"
         x="0"
         y="0"
         width="100%"
         height="100%" />
    </clipPath>
    <clipPath
       clipPathUnits="userSpaceOnUse"
       id="clipPath18-6">
      <path
         d="M 0,1516.543 H 1459.627 V 0 H 0 Z"
         id="path16-6"
         inkscape:connector-curvature="0" />
    </clipPath>
    <clipPath
       clipPathUnits="userSpaceOnUse"
       id="clipPath18-8">
      <path
         d="M 0,1516.543 H 1459.627 V 0 H 0 Z"
         id="path16-2"
         inkscape:connector-curvature="0" />
    </clipPath>
  </defs>
  <sodipodi:namedview
     id="base"
     pagecolor="#ffffff"
     bordercolor="#666666"
     borderopacity="1.0"
     inkscape:pageopacity="0.0"
     inkscape:pageshadow="2"
     inkscape:zoom="0.31640307"
     inkscape:cx="-704.31039"
     inkscape:cy="314.96253"
     inkscape:document-units="mm"
     inkscape:current-layer="g9128"
     showgrid="false"
     showguides="true"
     inkscape:guide-bbox="true"
     inkscape:window-width="1920"
     inkscape:window-height="1001"
     inkscape:window-x="-9"
     inkscape:window-y="-9"
     inkscape:window-maximized="1"
     inkscape:snap-global="false">
    <sodipodi:guide
       position="72.922013,252.88982"
       orientation="0,1"
       id="guide4178"
       inkscape:locked="false" />
    <sodipodi:guide
       position="99.099147,43.94019"
       orientation="0,1"
       id="guide4180"
       inkscape:locked="false" />
  </sodipodi:namedview>
  <metadata
     id="metadata3628">
    <rdf:RDF>
      <cc:Work
         rdf:about="">
        <dc:format>image/svg+xml</dc:format>
        <dc:type
           rdf:resource="http://purl.org/dc/dcmitype/StillImage" />
        <dc:title></dc:title>
      </cc:Work>
    </rdf:RDF>
  </metadata>
  <g
     inkscape:label="Layer 1"
     inkscape:groupmode="layer"
     id="layer1">
    <g
       id="g11993"
       transform="translate(0.01320793,-14.655723)">
      <g
         id="g1507">
        <g
           id="g940"
           transform="matrix(3.9263952,0,0,3.9263952,174.47181,140.66585)">
          <g
             transform="matrix(0.08984775,0,0,-0.08984775,-135.14777,24.369225)"
             id="g12">
            <g
               id="g9128"
               transform="translate(-1545.497,23.703942)">
              <path
                 style="fill:#000000;stroke-width:0.30207202"
                 d="m 3075.2669,134.60911 -1.6414,4.98171 0.2206,-3.13895 c 0.1215,-1.7264 0.1354,-3.0659 0.031,-2.97665 -0.3306,0.28261 -4.2781,18.26687 -5.4104,24.64883 -0.9532,5.37232 -1.5798,8.01793 -2.0551,8.67623 -0.076,0.10506 -0.5021,-0.23513 -0.9473,-0.75594 -1.076,-1.25879 -2.7915,-1.44151 -4.1827,-0.4455 -1.0145,0.72632 -1.1948,1.15625 -1.7496,4.17247 -0.2044,1.11086 -0.4856,1.85571 -0.6945,1.83934 -0.2427,-0.019 -0.2807,-0.90677 -0.1234,-2.87972 0.2206,-2.7176 0.1915,-2.8947 -0.5419,-3.75417 -0.6069,-0.71132 -1.0477,-0.92373 -2.0862,-1.00507 -1.5276,-0.11966 -2.4819,0.46326 -3.2979,2.01415 -0.3408,0.64796 -0.5699,0.85049 -0.6299,0.55665 -0.4021,-1.97244 -1.8185,-3.03519 -3.5747,-2.68204 -1.2546,0.25227 -1.5216,0.41411 -2.2215,1.34627 -0.5749,0.76559 -1.3608,3.34983 -1.6571,5.4484 -0.1427,1.00993 -0.2838,1.20588 -0.8969,1.24412 -0.8019,0.05 -0.8187,0.44844 0.1686,-4.01996 0.2736,-1.23814 0.2252,-1.41317 -0.6846,-2.47762 -1.5357,-1.7967 -3.6666,-1.66766 -5.162,0.31259 -0.5758,0.76247 -2.7623,4.44958 -2.8771,4.85185 -0.01,0.0242 -1.0437,0.059 -2.3038,0.0768 l -2.2911,0.0324 -0.6842,-2.28033 c -1.588,-5.29279 -4.3409,-10.44351 -8.5132,-15.92851 -1.4854,-1.9528 -4.0217,-5.45243 -5.6361,-7.77693 -3.0902,-4.44937 -3.9518,-5.47044 -2.9101,-3.44881 2.3696,4.59885 2.2981,4.60479 -1.6136,0.13402 -2.035,-2.32584 -3.5729,-4.01431 -3.4178,-3.75219 0.1554,0.26214 1.6914,2.73385 3.4135,5.49269 2.9261,4.68748 3.4163,5.6472 2.8625,5.60383 -0.1215,-0.009 -1.6483,-1.66304 -3.3927,-3.67448 -3.3395,-3.85064 -3.3351,-3.70781 0.044,1.44273 l 2.0959,3.19415 -2.92,-3.10721 c -3.3317,-3.54506 -3.5776,-3.96717 4.2546,7.30221 2.7559,3.96547 5.1668,7.36026 5.3575,7.54398 0.6698,0.64513 2.823,4.918 3.5304,7.00578 l 0.7149,2.1098 -1.581,0.12734 c -10.7933,0.86922 -15.4314,1.5665 -36.9533,5.5553 l -2.5636,0.47512 -9.1672,-1.57423 c -5.042,-0.86583 -11.3199,-1.94374 -13.9509,-2.39536 -2.7549,-0.47288 -6.4485,-0.89314 -8.7093,-0.99096 -3.5356,-0.15298 -4.2332,-0.0871 -7.0209,0.66331 -3.5227,0.94824 -6.5741,1.97166 -11.5133,3.8614 l -3.436,1.3146 -5.6944,-0.79826 c -3.1319,-0.43905 -9.2006,-1.29402 -13.4861,-1.89994 -4.5615,-0.64495 -12.3237,-1.46547 -18.7239,-1.97927 -10.8269,-0.86913 -10.9302,-0.88336 -10.71,-1.47337 0.8938,-2.39447 1.5057,-4.93647 2.4715,-10.267 1.0042,-5.5428 4.5215,-22.02618 5.0872,-23.84067 0.1267,-0.40635 0.1354,-0.6578 0.019,-0.55878 -0.1159,0.0991 -0.8037,1.74926 -1.5284,3.66713 -0.831,2.199 -1.2247,2.99068 -1.066,2.14327 0.1385,-0.73908 0.5161,-2.7281 0.8392,-4.42007 0.3231,-1.69196 0.5368,-3.13543 0.4751,-3.20769 -0.062,-0.0723 -0.793,1.92315 -1.6252,4.43424 -0.832,2.51111 -1.634,4.55615 -1.7822,4.54454 -0.3666,-0.0287 -0.3343,-0.28343 0.8735,-6.88954 0.5821,-3.18356 1.0111,-5.8435 0.9533,-5.911 -0.057,-0.0675 -0.8858,2.24289 -1.8402,5.13418 l -1.7354,5.2569 0.1089,-3.32444 0.1089,-3.32444 -2.4391,11.01984 c -1.3415,6.06091 -2.7255,12.76994 -3.0756,14.90895 -0.35,2.13901 -0.9297,4.9038 -1.2882,6.14398 l -0.6519,2.25487 -0.8734,-1.1169 c -0.6976,-0.8922 -1.0998,-1.13464 -1.9987,-1.20506 -2.1777,-0.17058 -3.6522,1.40007 -3.865,4.1168 -0.119,1.52037 -0.4053,2.27525 -0.8492,2.24047 -0.1879,-0.0148 -0.1917,-0.79634 -0.01,-2.04602 0.3891,-2.67594 0.1576,-3.69445 -1.0608,-4.66758 -1.9955,-1.5937 -4.4771,-0.55327 -5.1529,2.16033 -0.3532,1.41797 -0.3624,1.42716 -0.3092,0.30651 0.063,-1.32987 -1.0169,-2.84494 -2.3465,-3.29157 -1.0003,-0.33602 -2.6904,0.26422 -3.4272,1.21725 -0.6183,0.79959 -1.6926,4.26455 -1.828,5.89564 -0.097,1.1433 -0.4473,1.35912 -1.245,0.76191 -0.3265,-0.24444 -0.3169,-0.54272 0.053,-1.64039 1.1423,-3.39166 0.2306,-5.63556 -2.3724,-5.83945 -1.7138,-0.13425 -2.5655,0.58019 -4.3061,3.61207 l -1.6591,2.8896 -1.7085,-0.13383 c -0.9396,-0.0736 -1.926,-0.0693 -2.1918,0.01 -0.3191,0.0946 -0.5649,-0.10492 -0.7228,-0.58687 -0.1316,-0.40161 -0.5807,-1.80868 -0.9978,-3.12681 -1.4255,-4.50453 -4.2673,-9.51682 -8.6804,-15.3106 -1.3498,-1.77223 -3.6044,-4.88034 -5.0103,-6.90692 -3.7746,-5.44143 -3.8012,-5.4402 -1.2191,0.056 0.4533,0.96452 -0.2709,0.27113 -3.1014,-2.96992 l -3.6926,-4.22821 2.8083,4.46194 c 1.5447,2.45408 3.087,4.93476 3.4273,5.51262 1.3094,2.22324 0.067,1.25302 -3.1729,-2.4777 -3.6542,-4.20778 -3.7062,-4.13543 -0.5187,0.72239 1.1563,1.76226 1.9953,3.19572 1.8644,3.18546 -0.131,-0.0103 -1.2272,-1.18282 -2.4362,-2.6057 -1.2089,-1.42288 -2.2527,-2.54029 -2.3196,-2.48313 -0.066,0.0572 2.678,4.0876 6.0997,8.9565 7.0782,10.07188 7.8771,11.33586 9.0834,14.37148 1.4684,3.69522 1.5759,3.46221 -1.6795,3.64132 -6.6376,0.36522 -17.1884,1.93425 -32.8258,4.88166 l -5.4754,1.03201 -11.8642,-2.08961 c -6.5253,-1.14928 -14.2307,-2.3383 -17.1233,-2.64225 l -5.2592,-0.55266 -4.0881,0.77423 c -5.0081,0.94844 -7.7274,1.73386 -14.1792,4.09555 l -5.0003,1.83039 -5.8291,-0.89734 c -3.2061,-0.49353 -8.8574,-1.40388 -12.5584,-2.02297 -9.7258,-1.62688 -15.7199,-2.45164 -20.5905,-2.83316 l -4.2833,-0.33552 0.543,-1.22437 c 1.1446,-2.58135 1.7579,-4.83022 2.5525,-9.35898 0.9306,-5.3032 2.1447,-11.17463 4.1419,-20.03136 0.7539,-3.34236 1.3245,-6.13086 1.2683,-6.19668 -0.057,-0.0658 -0.5997,1.29904 -1.2079,3.03301 -0.608,1.73398 -1.1478,2.98261 -1.1994,2.77476 -0.052,-0.20789 0.1549,-1.63455 0.4592,-3.17039 0.8857,-4.47087 0.7097,-4.47236 -0.8392,-0.007 -1.3879,4.00164 -1.7462,4.77728 -2.0451,4.42755 -0.073,-0.0858 0.3387,-2.76912 0.9157,-5.96297 0.5769,-3.19385 1.0626,-6.07862 1.0792,-6.41062 0.017,-0.33198 -0.7272,1.65497 -1.6529,4.41549 l -1.6829,5.01912 -0.034,-2.42668 c -0.019,-1.33467 -0.057,-2.55798 -0.085,-2.71846 -0.053,-0.3041 -4.2931,18.81351 -4.7528,21.42834 -1.0848,6.17116 -1.871,10.01082 -2.2314,10.89826 l -0.4228,1.04105 -0.9146,-1.07006 c -2.3099,-2.70248 -5.5158,-0.66561 -5.8899,3.74216 -0.1076,1.26641 -0.4149,2.03751 -0.8005,2.0073 -0.1466,-0.0115 -0.1331,-1.30162 0.03,-2.86699 l 0.2966,-2.8461 -0.901,-1.05756 c -1.08,-1.26807 -2.6623,-1.54405 -4.0369,-0.70412 -1.0307,0.62977 -1.3931,1.55405 -2.2451,5.72569 -0.446,2.18404 -0.6415,2.7703 -0.6461,1.93785 0,-0.65645 0.1838,-1.75884 0.4164,-2.44978 0.7521,-2.23283 0.6989,-3.52417 -0.1908,-4.63992 -0.6636,-0.83219 -1.0296,-1.02169 -2.1414,-1.10878 -2.3776,-0.18623 -3.6401,1.55934 -4.5113,6.23683 -0.3196,1.71639 -0.4058,1.86194 -1.0709,1.80984 -0.8434,-0.066 -0.8397,-0.003 -0.1283,-2.22988 0.7809,-2.44384 0.4508,-4.10887 -0.9917,-5.00414 -2.1098,-1.30925 -3.6871,-0.44419 -5.8231,3.19353 l -1.6227,2.76351 -1.9311,-0.10581 c -1.0621,-0.0582 -2.0917,-0.10476 -2.288,-0.10347 -0.1962,0.002 -0.6986,-1.11521 -1.1164,-2.48112 -0.4176,-1.36591 -1.0244,-3.1178 -1.3484,-3.89309 -1.1372,-2.72189 -3.9265,-7.45455 -6.0643,-10.28951 -1.1875,-1.57473 -3.5102,-4.76192 -5.1615,-7.08265 -1.6513,-2.32072 -3.4133,-4.79149 -3.9154,-5.49059 l -0.913,-1.27111 0.7642,1.72635 c 0.4203,0.94949 1.0303,2.29258 1.3554,2.98464 0.4532,0.96452 -0.2709,0.27113 -3.1015,-2.96992 l -3.6926,-4.22821 2.8083,4.46194 c 1.5447,2.45408 3.0869,4.93476 3.4273,5.51262 1.3017,2.21022 0.079,1.26429 -2.982,-2.3064 -1.7509,-2.0426 -3.1912,-3.61351 -3.2009,-3.49093 -0.01,0.12259 1.0307,1.81294 2.3118,3.75635 1.2811,1.9434 2.2702,3.58391 2.1981,3.6456 -0.073,0.0617 -1.1205,-1.05204 -2.3293,-2.47492 -1.209,-1.42289 -2.3028,-2.59526 -2.4308,-2.60529 -0.1279,-0.01 2.558,3.95328 5.9689,8.80733 7.0961,10.09845 8.4231,12.2433 9.4509,15.27683 0.8868,2.61679 1.1971,2.42102 -4.2685,2.69164 -7.5856,0.3756 -17.2019,1.71952 -34.5434,4.82759 l -8.8377,1.58395 -4.685,-1.08169 c -8.6972,-2.008 -14.4474,-3.89217 -17.7082,-5.80242 l -1.7967,-1.05247 -2.6981,1.50567 c -2.2728,1.2684 -2.6597,1.59289 -2.4552,2.05923 0.3593,0.81942 1.8443,2.19826 3.356,3.11599 1.4168,0.86005 6.761,3.12436 7.5133,3.18329 0.2465,0.0193 0.4393,0.14719 0.4286,0.28419 -0.02,0.255 -3.7704,0.4999 -8.0362,0.52476 l -2.3907,0.0139 v 2.4541 c -6e-4,1.34975 -0.03,2.83503 -0.066,3.30063 l -0.066,0.8464 2.1981,-0.0179 c 6.5346,-0.0532 12.8556,-0.60884 21.2629,-1.8691 5.3316,-0.79926 5.3568,-0.79994 8.5016,-0.22756 13.9325,2.53578 32.5304,3.68517 44.761,2.76633 1.6958,-0.1274 3.3095,-0.27775 3.5861,-0.3341 0.8571,-0.17466 0.8349,1.71792 -0.051,4.32529 -2.6418,7.77564 -3.9807,15.54772 -4.9816,28.91412 l -0.7691,10.26874 0.7316,-2.82117 c 0.87,-3.35524 0.9455,-3.07696 0.9888,3.63789 0.015,2.37606 0.082,4.27367 0.1485,4.21692 0.066,-0.0567 0.481,-2.91895 0.9214,-6.36045 0.4404,-3.44149 0.8646,-6.3119 0.9428,-6.37867 0.3645,-0.31162 0.4776,0.59517 0.6321,5.06804 0.099,2.85339 0.2401,4.26146 0.3481,3.46115 0.1004,-0.74207 0.3831,-2.83332 0.6289,-4.6472 l 0.4471,-3.29795 0.2045,3.65198 0.2045,3.65199 0.4608,-5.26636 c 1.5021,-17.16957 3.1095,-26.19205 6.1492,-34.51451 l 0.8607,-2.35657 -0.043,1.51166 c -0.024,0.83139 0.02,2.65254 0.096,4.04698 0.1246,2.26466 0.2408,2.65387 1.0883,3.64546 1.0141,1.18645 2.185,1.51196 3.4476,0.95837 0.9733,-0.42676 1.8213,-1.37978 1.8913,-2.12567 0.058,-0.61518 0.1038,-0.60043 0.9277,0.29992 1.1505,1.25694 2.7576,1.41944 4.1537,0.42 0.5431,-0.38889 1.0026,-0.8983 1.021,-1.13202 0.04,-0.50496 0.5255,-0.5253 0.7791,-0.0326 0.3821,0.74235 2.0297,1.32432 3.1404,1.10928 2.0665,-0.40003 2.1094,-0.50025 3.8192,-8.92746 1.3329,-6.56844 1.2894,-6.41345 1.7882,-6.37438 0.4054,0.0318 0.3909,0.6876 -0.1175,5.26978 -0.4998,4.50583 -0.5217,5.3777 -0.1582,6.27058 0.5402,1.32693 1.5498,1.95264 3.0527,1.89206 1.9673,-0.0793 2.7039,-0.97101 3.2381,-3.92043 0.3452,-1.90602 2.013,-6.75576 2.4921,-7.24679 0.034,-0.0345 2.3471,0.51508 5.1409,1.22148 8.4585,2.13871 13.1242,2.96636 19.661,3.48767 5.1549,0.41107 6.4803,0.41739 9.2015,0.0437 4.3045,-0.5911 8.4369,-1.59072 12.5456,-3.03477 l 3.4274,-1.20456 7.2284,0.5553 c 3.9756,0.30544 8.4589,0.51297 9.9628,0.46123 1.5038,-0.0517 5.793,0.023 9.5314,0.16611 8.8906,0.34033 14.8119,-0.0976 25.7456,-1.90426 2.6975,-0.44572 4.972,-0.76179 5.0544,-0.70239 0.082,0.0594 3.5845,0.61208 7.7822,1.22815 9.3505,1.37232 26.537,2.56658 32.2517,2.24112 1.925,-0.10964 3.6051,-0.19235 3.7335,-0.18379 0.1284,0.008 0.3364,0.36628 0.462,0.79496 0.1703,0.58092 -0.073,1.73865 -0.9531,4.54605 -1.2014,3.82977 -2.1935,7.93037 -3.2188,13.30298 -0.6267,3.28488 -2.6816,25.32812 -2.3333,25.03037 0.1195,-0.1022 0.5509,-1.56019 0.9586,-3.23998 l 0.7412,-3.05417 0.072,4.09607 c 0.087,4.98129 0.2599,7.53138 0.4237,6.24463 1.4662,-11.52051 1.6343,-12.52711 2.0175,-12.0788 0.068,0.0799 0.1781,2.32691 0.2441,4.99333 0.066,2.66642 0.1702,4.90879 0.2315,4.98303 0.062,0.0743 0.1807,-0.7345 0.2649,-1.79723 0.083,-1.0628 0.3382,-3.0767 0.5644,-4.47551 l 0.4112,-2.54326 0.2209,3.65327 0.221,3.65328 0.6263,-7.52587 c 0.7815,-9.38949 1.8559,-17.44628 3.007,-22.54494 1.0543,-4.67022 3.4141,-12.12713 3.658,-11.55917 0.095,0.22053 0.168,1.49144 0.163,2.82423 -0.012,3.28882 0.126,4.17507 0.8111,5.18553 0.7609,1.12243 2.5811,1.71855 3.7466,1.22706 0.907,-0.38252 1.9292,-1.52832 1.9836,-2.22363 0.022,-0.2813 0.3371,-0.10142 0.9007,0.51439 1.4164,1.5472 3.9219,1.27277 4.8983,-0.53651 l 0.4682,-0.86749 0.6168,0.67763 c 0.3538,0.38866 1.1792,0.78604 1.9359,0.93187 1.1443,0.22058 1.4569,0.14915 2.3608,-0.5395 1.1383,-0.86715 0.9392,-0.1606 2.9521,-10.47634 0.8137,-4.1703 0.9268,-4.53696 1.3429,-4.35637 0.265,0.11504 0.2282,1.45428 -0.1447,5.26493 -0.5837,5.9651 -0.4309,6.90895 1.2766,7.88947 1.3299,0.76359 2.494,0.63341 3.6627,-0.40955 0.7419,-0.66224 0.9463,-1.16953 1.3419,-3.33124 0.3968,-2.16843 1.9352,-6.44878 2.4873,-6.92077 0.094,-0.0799 1.7459,0.26261 3.6718,0.76107 21.8003,5.64192 31.6089,5.5368 47.7937,-0.51224 5.3777,-2.00988 4.0494,-1.93928 14.3575,-0.76308 4.9104,0.5603 18.026,0.96272 22.6703,0.69558 4.2378,-0.24374 8.9748,-0.80085 14.9378,-1.75682 l 5.7827,-0.92707 7.3873,1.05882 c 15.2643,2.18785 23.9083,2.79583 33.6285,2.36522 3.9544,-0.17517 4.1036,-0.12164 3.9909,1.43175 -0.027,0.44283 -0.5024,2.17813 -1.0452,3.8571 -0.9462,2.92744 -2.2298,8.42921 -3.4031,14.58685 -0.3034,1.59133 -0.9039,7.61181 -1.3348,13.37883 -0.7535,10.08854 -0.7599,10.39556 -0.1625,8.11015 1.0362,-3.96471 1.1752,-3.83265 1.2068,1.14688 0.034,5.42345 0.2812,7.30661 0.5593,4.26634 0.5369,-5.86917 1.3119,-11.08056 1.644,-11.05455 0.2338,0.0183 0.3727,1.48106 0.4133,4.35009 0.034,2.37737 0.1471,4.60193 0.2525,4.94347 0.107,0.34761 0.3648,-1.4885 0.5858,-4.17082 0.2171,-2.63547 0.4487,-4.72838 0.5149,-4.65087 0.066,0.0775 0.2056,1.7692 0.3097,3.75931 0.104,1.99011 0.2377,3.67524 0.2971,3.74476 0.06,0.0695 0.5982,-5.26185 1.1972,-11.84746 0.7878,-8.66041 1.3084,-13.00474 1.8815,-15.69924 0.9021,-4.24185 2.4989,-9.9325 3.577,-12.74869 l 0.732,-1.91214 -0.076,1.26937 c -0.1334,2.2217 0.1738,5.97791 0.5704,6.97152 0.4271,1.07022 1.6751,2.07943 2.6676,2.15717 1.3281,0.10403 3.1077,-1.14312 3.2085,-2.24841 0.03,-0.28926 0.1835,-0.51586 0.3492,-0.50289 0.1655,0.013 0.2928,0.12989 0.2825,0.2598 -0.032,0.4138 1.6199,1.40421 2.4514,1.46934 1.3542,0.10608 3.2397,-1.08464 3.346,-2.11306 0.028,-0.25834 0.3512,-0.0975 0.9069,0.44979 1.0165,1.00084 2.6992,1.26006 3.8341,0.59066 0.9905,-0.5841 1.7108,-2.0661 1.8566,-3.81995 0.07,-0.79148 0.5226,-3.18057 1.0149,-5.30844 0.4923,-2.12787 0.9392,-4.39129 0.993,-5.02983 0.081,-0.93334 0.1885,-1.11787 0.56,-0.94088 0.254,0.12106 0.4848,0.22175 0.5127,0.22376 0.027,0.002 -0.1877,2.49353 -0.4821,5.53647 l -0.5327,5.5328 0.8232,1.08045 c 0.711,0.93335 1.0143,1.09542 2.2276,1.19047 1.1926,0.0934 1.5425,-0.0219 2.318,-0.76401 0.7665,-0.73356 0.9784,-1.24957 1.3183,-3.21079 0.3716,-2.14391 1.9163,-6.49009 2.4819,-6.98275 0.1309,-0.11398 2.5722,0.37559 5.4251,1.08797 14.5108,3.62324 22.9175,4.44668 31.1096,3.04713 3.4612,-0.59132 9.2874,-2.20112 11.915,-3.29222 1.2354,-0.513 1.7331,-0.51173 8.288,0.0212 4.2189,0.343 8.5935,0.51861 11.0739,0.44452 4.0606,-0.12129 7.2849,-0.38462 7.557,-0.6172 0.1596,-0.13642 -0.3352,-6.01491 -0.5249,-6.23692 -0.067,-0.0791 -1.7678,-0.0219 -3.7783,0.1272 -2.0104,0.14908 -3.7222,0.1928 -3.8039,0.0972 -0.1791,-0.20951 4.2232,-0.73631 6.6614,-0.79713 1.9998,-0.0499 1.8885,0.19381 1.8622,-4.07722 l -0.015,-2.36098 -2.7516,-0.0417 c -4.9051,-0.0744 -11.1126,1.3808 -19.3198,4.52919 l -3.9048,1.49794 -3.2985,-0.43897 c -1.8143,-0.24143 -7.6039,-1.17859 -12.8658,-2.08259 -12.7256,-2.18623 -17.8795,-2.93104 -23.1256,-3.34198 -4.0429,-0.31668 -4.3564,-0.38149 -4.1312,-0.85385 0.9933,-2.08353 1.9074,-5.44346 2.8046,-10.30947 1.2204,-6.61963 1.4996,-7.97133 3.6866,-17.85099 0.9017,-4.07355 1.5905,-7.46385 1.5305,-7.53401 -0.06,-0.0701 -0.6075,1.29389 -1.2167,3.0312 -0.6092,1.73733 -1.1435,3.01436 -1.1874,2.83785 -0.044,-0.17649 0.2605,-2.0469 0.6764,-4.15643 0.416,-2.10953 0.7116,-3.88772 0.6571,-3.95154 -0.055,-0.0638 -0.784,1.95042 -1.6209,4.47609 -0.9921,2.99409 -1.6582,4.58145 -1.9137,4.56143 -0.248,-0.0194 -0.32,-0.27534 -0.1961,-0.6971 0.3587,-1.21981 1.9996,-10.9422 1.9086,-11.3084 -0.05,-0.19825 -0.8281,1.88136 -1.7309,4.6213 z m -23.265,35.18179 c -0.1827,0.94581 -0.4958,2.11433 -0.6959,2.59672 -0.2949,0.71101 -0.3089,0.56585 -0.074,-0.76673 0.3852,-2.18482 0.7549,-3.57684 0.9464,-3.56185 0.086,0.007 0.01,0.78608 -0.1764,1.73186 z m -356.412,-25.66833 c -0.1149,0.23271 -0.1807,0.15576 -0.1677,-0.1962 0.012,-0.31847 0.097,-0.49079 0.1891,-0.38287 0.092,0.10791 0.083,0.3685 -0.021,0.57906 z m 391.2025,35.61805 c 3.5418,0.52712 8.0524,1.2547 10.0238,1.61687 l 3.5844,0.65849 -1.9877,0.23265 c -5.9388,0.69506 -14.4861,-0.49345 -28.3247,-3.93854 l -1.1889,-0.29596 1.3688,-0.068 c 1.9247,-0.0955 8.9552,0.6679 16.5243,1.79444 z m -60.9954,-1.12229 c 0.203,0.79407 0.331,1.47624 0.2847,1.51592 -0.615,0.52561 -22.836,0.004 -22.2727,-0.52302 0.4384,-0.4101 12.2883,-1.90936 18.4869,-2.33898 3.1793,-0.22036 3.0922,-0.25385 3.5011,1.34608 z m 22.908,8.10598 c -0.6634,2.7906 -0.831,3.24029 -0.768,2.06082 0.1138,-2.12919 1.6959,-8.83229 1.6503,-6.99116 -0.019,0.74845 -0.4155,2.96712 -0.8823,4.93034 z m -7.0577,-0.33102 c -0.1095,0.53602 -0.1366,0.16138 -0.06,-0.83255 0.07,-0.99439 0.1659,-1.43247 0.1989,-0.97459 0.033,0.4579 -0.029,1.27112 -0.1339,1.8075 z m -182.1565,-13.12701 c -0.3934,1.58594 -0.4036,1.59757 -0.3433,0.38974 0.073,-1.47509 0.6338,-3.57274 0.7034,-2.634 0.025,0.33526 -0.1375,1.34514 -0.3601,2.24426 z m 98.8759,5.89805 2.2435,0.3704 -1.6717,0.12746 c -0.9194,0.0701 -3.6431,0.0274 -6.0525,-0.0948 -2.4094,-0.12225 -5.4017,-0.24509 -6.6494,-0.27299 l -2.2685,-0.0508 2.1636,-0.54461 c 1.8448,-0.46432 2.7407,-0.49747 6.0776,-0.22488 2.1527,0.17583 4.9236,0.48641 6.1574,0.69014 z m -48.2144,2.4168 5.6931,0.81588 -2.541,0.61707 c -6.3011,1.53019 -11.9216,1.69479 -19.2158,0.56275 -5.8896,-0.91406 -17.0495,-3.4281 -17.4863,-3.93926 -0.4573,-0.53507 0.7879,-0.79549 3.8064,-0.79605 4.1622,-7.7e-4 22.2411,1.66441 29.7436,2.73961 z m -76.5755,-1.63357 c 0.064,0.46329 0.1748,1.13066 0.2466,1.48305 0.1225,0.60125 -0.051,0.64872 -2.8171,0.7708 -4.1923,0.18503 -13.4078,-0.0447 -16.7685,-0.41802 l -2.8536,-0.31699 3.3759,-0.54866 c 6.1921,-1.00633 15.3718,-1.96579 17.7571,-1.85595 0.7946,0.0366 0.9618,0.17636 1.0596,0.88577 z m 23.2665,7.35222 -0.8819,3.71839 0.3191,-2.55048 c 0.1758,-1.40275 0.5626,-3.41768 0.8603,-4.47757 0.8818,-3.13997 0.6679,-0.76118 -0.2975,3.30965 z m -7.1681,-0.33425 c -0.3639,1.54483 -0.5164,1.58104 -0.4,0.0949 0.054,-0.69014 0.2253,-1.24484 0.3804,-1.23268 0.1564,0.0122 0.165,0.51975 0.02,1.13776 z m -82.9561,-5.84379 1.9415,0.35681 -2.378,0.066 c -1.308,0.0363 -3.8692,-0.11285 -5.6917,-0.3314 -1.9989,-0.23971 -4.1776,-0.31152 -5.491,-0.18097 -1.1974,0.11903 -2.6511,0.17428 -3.2303,0.12278 -1.0004,-0.089 -0.9761,-0.10907 0.4859,-0.40109 3.0446,-0.60816 10.0255,-0.42937 14.3636,0.36789 z m -63.6938,0.8212 c 6.721,0.92846 14.0367,2.1486 14.2286,2.3731 0.3074,0.35973 -4.6973,0.46806 -8.3052,0.17977 -4.2822,-0.3421 -9.7574,-1.30168 -16.1984,-2.83868 -3.1696,-0.75633 -4.0339,-1.04891 -3.2513,-1.1005 1.4295,-0.0943 6.7728,0.45338 13.5263,1.38631 z m -59.018,-1.12483 c 0.134,0.78797 0.1275,1.52225 -0.015,1.63174 -0.2931,0.22576 -5.7594,0.60364 -10.2976,0.71188 -3.1259,0.0746 -18.6621,-0.75082 -18.1044,-0.96182 0.7102,-0.26876 11.0572,-1.75673 15.1545,-2.1793 4.6875,-0.48345 12.5348,-0.94184 12.8376,-0.74988 0.1,0.0631 0.2907,0.75942 0.4248,1.54738 z m 23.0735,7.52457 -0.8723,3.56763 0.3109,-2.55111 c 0.1713,-1.40309 0.5682,-3.48541 0.8826,-4.62734 0.9506,-3.45487 0.6902,-0.52483 -0.3213,3.61082 z m -6.8499,-1.61494 c -0.025,0.32149 -0.1879,0.65766 -0.3616,0.74705 -0.1791,0.0922 -0.2896,-0.17103 -0.2553,-0.60811 0.033,-0.42385 0.1959,-0.76003 0.3615,-0.74706 0.1656,0.013 0.2805,0.28663 0.2554,0.60812 z"
                 id="path9609"
                 inkscape:connector-curvature="0" />
            </g>
          </g>
        </g>
      </g>
    </g>
  </g>
</svg>
